<svg width="71" height="38" viewBox="0 0 71 38" fill="none" xmlns="http://www.w3.org/2000/svg">
<path d="M6.26 19.24C5.14 19.24 4.06667 19.0933 3.04 18.8C2.01333 18.4933 1.18667 18.1 0.56 17.62L1.66 15.18C2.26 15.6067 2.96667 15.96 3.78 16.24C4.60667 16.5067 5.44 16.64 6.28 16.64C6.92 16.64 7.43333 16.58 7.82 16.46C8.22 16.3267 8.51333 16.1467 8.7 15.92C8.88667 15.6933 8.98 15.4333 8.98 15.14C8.98 14.7667 8.83333 14.4733 8.54 14.26C8.24667 14.0333 7.86 13.8533 7.38 13.72C6.9 13.5733 6.36667 13.44 5.78 13.32C5.20667 13.1867 4.62667 13.0267 4.04 12.84C3.46667 12.6533 2.94 12.4133 2.46 12.12C1.98 11.8267 1.58667 11.44 1.28 10.96C0.986667 10.48 0.84 9.86667 0.84 9.12C0.84 8.32 1.05333 7.59333 1.48 6.94C1.92 6.27333 2.57333 5.74667 3.44 5.36C4.32 4.96 5.42 4.76 6.74 4.76C7.62 4.76 8.48667 4.86667 9.34 5.08C10.1933 5.28 10.9467 5.58667 11.6 6L10.6 8.46C9.94667 8.08667 9.29333 7.81333 8.64 7.64C7.98667 7.45333 7.34667 7.36 6.72 7.36C6.09333 7.36 5.58 7.43333 5.18 7.58C4.78 7.72667 4.49333 7.92 4.32 8.16C4.14667 8.38667 4.06 8.65333 4.06 8.96C4.06 9.32 4.20667 9.61333 4.5 9.84C4.79333 10.0533 5.18 10.2267 5.66 10.36C6.14 10.4933 6.66667 10.6267 7.24 10.76C7.82667 10.8933 8.40667 11.0467 8.98 11.22C9.56667 11.3933 10.1 11.6267 10.58 11.92C11.06 12.2133 11.4467 12.6 11.74 13.08C12.0467 13.56 12.2 14.1667 12.2 14.9C12.2 15.6867 11.98 16.4067 11.54 17.06C11.1 17.7133 10.44 18.24 9.56 18.64C8.69333 19.04 7.59333 19.24 6.26 19.24ZM17.7739 19L13.1939 5H16.5539L20.5339 17.4H18.8539L23.0139 5H26.0139L30.0139 17.4H28.3939L32.4739 5H35.5739L30.9939 19H27.5139L23.9739 8.12H24.8939L21.2539 19H17.7739ZM37.3827 19V5H40.6227V19H37.3827ZM43.9452 19V5H50.0052C51.2585 5 52.3385 5.20667 53.2452 5.62C54.1518 6.02 54.8518 6.6 55.3452 7.36C55.8385 8.12 56.0852 9.02667 56.0852 10.08C56.0852 11.12 55.8385 12.02 55.3452 12.78C54.8518 13.54 54.1518 14.1267 53.2452 14.54C52.3385 14.94 51.2585 15.14 50.0052 15.14H45.7452L47.1852 13.68V19H43.9452ZM47.1852 14.04L45.7452 12.5H49.8252C50.8252 12.5 51.5718 12.2867 52.0652 11.86C52.5585 11.4333 52.8052 10.84 52.8052 10.08C52.8052 9.30667 52.5585 8.70667 52.0652 8.28C51.5718 7.85333 50.8252 7.64 49.8252 7.64H45.7452L47.1852 6.1V14.04ZM61.3783 10.64H68.1183V13.16H61.3783V10.64ZM61.6183 16.4H69.2383V19H58.3983V5H68.9783V7.6H61.6183V16.4Z" fill="url(#paint0_linear_1_6)"/>
<path d="M4.66 25.3H11.38V27.9H4.66V25.3ZM4.9 33H1.66V19H12.24V21.6H4.9V33ZM21.2334 33V19H24.4734V33H21.2334ZM34.5959 33V19H37.8359V30.36H44.8559V33H34.5959ZM53.4663 33V19H56.1463L62.1063 28.88H60.6863L66.5463 19H69.2063L69.2463 33H66.2063L66.1863 23.66H66.7463L62.0663 31.52H60.6063L55.8263 23.66H56.5063V33H53.4663Z" fill="url(#paint1_linear_1_6)"/>
<defs>
<linearGradient id="paint0_linear_1_6" x1="35.5" y1="0" x2="35.5" y2="24" gradientUnits="userSpaceOnUse">
<stop stop-color="#ED7F88"/>
<stop offset="1" stop-color="#F71A2C"/>
</linearGradient>
<linearGradient id="paint1_linear_1_6" x1="35.5" y1="14" x2="35.5" y2="38" gradientUnits="userSpaceOnUse">
<stop/>
<stop offset="0.526042" stop-color="#F71A2C"/>
<stop offset="1" stop-color="#F71A2C"/>
</linearGradient>
</defs>
</svg>
